<?xml version="1.0" standalone="no"?>
<!DOCTYPE svg PUBLIC "-//W3C//DTD SVG 20010904//EN"
 "http://www.w3.org/TR/2001/REC-SVG-20010904/DTD/svg10.dtd">
<svg version="1.0" xmlns="http://www.w3.org/2000/svg"
 width="500.000000pt" height="500.000000pt" viewBox="0 0 500.000000 500.000000"
 preserveAspectRatio="xMidYMid meet">
<metadata>
Created by potrace 1.16, written by Peter Selinger 2001-2019
</metadata>
<g transform="translate(0.000000,500.000000) scale(0.100000,-0.100000)"
fill="#000000" stroke="none">
<path d="M3832 2783 c-40 -20 -62 -59 -62 -113 l0 -40 -45 0 -45 0 0 -45 0
-45 45 0 45 0 0 -150 0 -150 50 0 50 0 0 150 0 150 50 0 c50 0 50 0 50 33 1
45 8 30 85 -169 60 -157 63 -168 50 -194 -16 -31 -33 -40 -76 -40 -28 0 -29
-2 -29 -45 l0 -45 42 0 c50 0 116 31 141 65 18 25 207 459 207 476 0 6 -23 9
-52 7 l-53 -3 -51 -122 c-28 -68 -53 -125 -56 -128 -3 -3 -18 29 -33 72 -15
43 -36 102 -47 131 l-19 52 -105 0 -104 0 0 28 c0 38 17 52 62 52 l38 0 0 45
0 45 -52 0 c-29 0 -68 -8 -86 -17z"/>
<path d="M390 2770 c-19 -19 -20 -33 -20 -269 0 -230 1 -251 19 -272 l19 -24
307 0 307 0 19 24 c18 21 19 42 19 272 0 236 -1 250 -20 269 -21 21 -110 29
-110 10 0 -5 18 -10 39 -10 51 0 71 -26 71 -92 l0 -48 -325 0 -325 0 0 48 c0
63 21 92 66 92 19 0 34 5 34 10 0 19 -79 11 -100 -10z m650 -334 c0 -145 -3
-177 -16 -190 -13 -14 -55 -16 -309 -16 -254 0 -296 2 -309 16 -13 13 -16 44
-16 183 0 92 3 171 7 174 3 4 150 7 325 7 l318 0 0 -174z"/>
<path d="M740 2465 l-75 -96 -40 46 c-40 45 -58 54 -70 35 -9 -14 85 -140 105
-140 19 0 203 227 195 241 -16 24 -46 2 -115 -86z"/>
<path d="M3415 2771 c-30 -6 -30 -6 -33 -84 -3 -70 -5 -78 -20 -71 -9 4 -44 9
-78 12 -101 7 -177 -47 -203 -145 -22 -80 6 -157 74 -209 47 -36 143 -46 193
-20 28 15 32 15 32 1 0 -11 12 -15 50 -15 l50 0 0 270 c0 299 6 276 -65 261z
m-59 -246 c22 -14 24 -22 24 -89 0 -91 -16 -111 -91 -111 -42 0 -53 5 -81 33
-27 27 -33 40 -33 76 0 47 27 88 70 107 26 11 81 4 111 -16z"/>
<path d="M1350 2533 c-51 -125 -99 -243 -107 -261 l-14 -33 57 3 57 3 26 65
26 65 109 0 109 0 26 -67 26 -68 57 0 c32 0 58 1 58 3 0 1 -47 117 -104 257
l-104 255 -64 3 -64 3 -94 -228z m200 8 l29 -81 -75 0 c-57 0 -75 3 -71 13 2
6 19 50 37 96 37 95 34 95 80 -28z"/>
<path d="M1071 2493 c-1 -241 -1 -242 -25 -270 l-24 -28 -294 -5 -293 -6 300
-4 300 -5 -290 -5 -290 -5 307 -3 307 -2 20 26 c20 25 21 39 21 263 0 135 -4
242 -10 251 -5 8 -10 11 -11 5 0 -5 -4 -1 -9 10 -5 12 -9 -78 -9 -222z"/>
<path d="M2845 2630 c-16 -3 -40 -12 -52 -19 -19 -10 -23 -9 -23 4 0 11 -12
15 -50 15 l-50 0 0 -195 0 -195 50 0 50 0 0 140 0 139 30 16 c42 22 77 19 105
-10 24 -23 25 -29 25 -155 l0 -130 50 0 50 0 0 141 c0 109 -4 149 -16 175 -27
56 -102 89 -169 74z"/>
<path d="M1887 2609 c-178 -94 -109 -369 93 -368 25 0 56 6 70 14 35 20 40 19
40 -9 0 -34 -36 -74 -74 -81 -28 -6 -85 4 -131 21 -13 5 -45 -41 -45 -65 0
-20 110 -44 176 -38 70 5 116 27 148 70 20 27 21 43 24 253 l3 224 -49 0 c-28
0 -52 -5 -54 -11 -2 -7 -12 -7 -31 0 -45 17 -128 12 -170 -10z m179 -84 c22
-14 24 -22 24 -90 0 -66 -2 -76 -22 -89 -61 -37 -132 -22 -168 36 -35 55 -8
131 55 159 26 11 81 4 111 -16z"/>
<path d="M2345 2615 c-82 -43 -129 -146 -105 -235 17 -63 81 -123 148 -140 60
-14 142 -1 182 30 l25 19 -29 30 c-27 29 -30 29 -57 16 -48 -25 -106 -19 -140
14 -16 16 -29 34 -29 40 0 7 47 11 140 11 l140 0 0 43 c-1 58 -30 119 -75 153
-31 23 -50 29 -104 32 -46 2 -75 -2 -96 -13z"/>
<path d="M3540 2435 l0 -195 50 0 50 0 0 195 0 195 -50 0 -50 0 0 -195z"/>
</g>
</svg>
